<?xml version="1.0" encoding="UTF-8"?>
<svg version="1.1" viewBox="0 0 100 100" xmlns="http://www.w3.org/2000/svg">
 <g transform="translate(0 -952.36)">
  <circle cx="50" cy="1002.4" r="45.669" fill="#bababa"/>
  <g transform="translate(0 3.1388)">
   <path d="m27.925 980.97c-0.88088 0-1.5904 0.70949-1.5904 1.5904v29.412c0 0.8809 0.70949 1.5904 1.5904 1.5904h28.396l-0.16348 0.692-0.18411 0.7714-0.18253 0.773-0.18253 0.7729-0.18411 0.7714-0.18253 0.7729-0.18253 0.7714-0.18412 0.773-0.18253 0.7729-0.18253 0.7714-0.18412 0.773-0.18253 0.773c-0.44222 1.8656 0.76181 0.6888 1.784 0l1.0745-0.773 1.0745-0.773 1.0745-0.7714 1.0761-0.7729 1.0745-0.773 1.0745-0.7714 1.0745-0.7729 1.0761-0.7714 1.0745-0.7729 1.0745-0.773 1.0745-0.7714 0.96343-0.692h3.3617c0.88088 0 1.5904-0.7095 1.5904-1.5904v-29.412c0-0.88088-0.70949-1.5904-1.5904-1.5904h-44.151z" fill="#fff"/>
   <rect x="33.066" y="985.89" width="33.868" height="3.3301" ry=".76042" fill="#bababa"/>
   <rect x="33.066" y="992.69" width="33.868" height="3.3301" ry=".76042" fill="#bababa"/>
   <rect x="33.066" y="999.49" width="33.868" height="3.3301" ry=".76042" fill="#bababa"/>
  </g>
 </g>
</svg>
