<?xml version='1.0' encoding='utf-8'?>
<svg xmlns="http://www.w3.org/2000/svg" version="1.1" id="Layer_1" x="0px" y="0px" viewBox="0 0 1485.107 1638.339" enable-background="new 0 0 1485.107 1638.339"> <g id="Clef"> <title>Layer 1</title> <g id="Jesus_Cross"> <g> <path d="M854.534,192.142h-76.216c-10.181,10.79-20.067,25.242-28.878,43.243h114.765 C863.246,217.203,859.789,202.825,854.534,192.142z"/> <path d="M862.603,278.629H732.708c-3.993,13.262-7.439,27.686-10.192,43.243h129.76 C857.091,307.695,860.604,293.298,862.603,278.629z"/> <path d="M811.325,890.852c-3.389-0.126-6.759-0.06-10.108,0.153c2.438,12.083,4.882,24.182,7.324,36.272h88.001 C874.558,904.969,845.599,890.852,811.325,890.852z"/> <path d="M891.399,321.872h510.228c-8.174-14.846-17.085-29.268-26.717-43.243H892.23c0.001,0.711,0.008,1.418,0.007,2.131 C892.351,294.958,892.061,308.65,891.399,321.872z"/> <path d="M684.178,278.629H274.447c-8.652,14.119-16.517,28.556-23.592,43.243h433.337c-0.351-5.555-0.563-10.608-0.623-15.114 C683.404,297.444,683.624,288.046,684.178,278.629z"/> <path d="M719.908,451.602c1.675,13.016,3.768,27.498,6.223,43.243h10.864c12.977-14.395,25.508-28.787,37.317-43.243H719.908z"/> <path d="M833.452,365.115H717.004c-0.934,11.479-1.517,23.432-1.698,35.863c0.054,2.302,0.155,4.77,0.297,7.38h91.427 C816.871,394.088,825.762,379.694,833.452,365.115z"/> <path d="M1467.73,581.331c-0.202-14.591-0.912-29.008-2.111-43.243H832.395c-8.785,15.365-18.272,29.711-28.272,43.243H1467.73z"/> <path d="M737.185,656.558c-3.909,3.8-7.834,7.548-11.766,11.26h13.878C738.591,664.06,737.883,660.29,737.185,656.558z"/> <path d="M782.534,893.948c-21.019,5.305-40.333,17.071-55.535,33.329h61.955C786.819,916.187,784.678,905.073,782.534,893.948z"/> <path d="M193.592,1402.954c12.78,6.116,27.146,10.775,43.425,14.066c60.671,0,121.654,0.931,182.7,1.328 c24.781,0.161,47.922,10.492,64.547,27.849h113.637c3.155-18.953,8.912-32.842,16.018-43.243H193.592z"/> <path d="M685.418,1514.363c-2.52,0-5.01-0.133-7.466-0.382c-0.786,2.42-0.676,2.902-0.676,2.902 c0.014,5.661,0.772,10.929,2.175,15.8h165.201c10.118-11.847,18.296-26.228,23.478-43.243H740.569 C727,1504.731,707.316,1514.363,685.418,1514.363z"/> <path d="M759.197,1446.197h115.09c0.001-0.351,0.008-0.698,0.006-1.051c0.019-10.693-0.944-24.927-2.746-42.192H750.123 c5.971,10.801,9.389,23.239,9.389,36.485C759.512,1441.719,759.395,1443.969,759.197,1446.197z"/> <path d="M702.121,1057.007c5.202,14.308,13,28.828,23.781,43.243h95.977c-2.657-14.223-5.371-28.654-8.129-43.243H702.121z"/> <path d="M124.401,1316.466c0.451,10.75,3.006,20.943,8.626,30.353c2.733,4.517,5.597,8.808,8.599,12.89h724.577 c-1.856-13.42-3.999-27.873-6.396-43.243H124.401z"/> <path d="M898.771,1437.737c0,2.869-0.055,5.68-0.137,8.461h381.048c-2.328-14.432-4.573-28.89-6.708-43.243H896.493 C898.088,1417.522,898.892,1429.273,898.771,1437.737z"/> <path d="M509.473,1489.44c5.86,14.268,10.511,28.682,13.957,43.243h91.653c-10.124-13.184-16.88-27.791-19.048-43.243H509.473z"/> <path d="M1294.643,1532.683c-2.614-14.154-5.201-28.615-7.732-43.243H893.519c-3.663,16.502-9.135,30.855-16.046,43.243H1294.643 z"/> <path d="M1274.012,1100.25c6.758-14.86,14.51-29.239,22.848-43.243H999.777c-3.025,14.777-7.457,29.285-13.351,43.243H1274.012z"/> <path d="M1383.372,927.277c8.764-14.39,16.539-28.753,22.734-43.243H971.877c8.023,13.463,14.65,28.003,19.8,43.243H1383.372z"/> <path d="M1447.939,754.304c3.427-14.517,6.42-28.937,8.952-43.243H765.34c2.773,14.206,5.612,28.639,8.501,43.243H1447.939z"/> <path d="M124.227,1057.007c4.308,3.222,8.856,6.426,13.283,9.998c9.865,7.776-7.204,19.866-18.31,33.245h409.973 c-8.087-13.882-15.125-28.378-21.147-43.243H124.227z"/> <path d="M1266.844,1359.709c-1.979-14.728-3.804-29.194-5.443-43.243H883.818c2.612,15.494,4.935,29.959,6.927,43.243H1266.844z"/> <path d="M669.454,1575.926H530.129c1.072,14.283,1.053,28.698-0.045,43.243h781.666c-2.915-13.697-5.881-28.181-8.853-43.243 H837.454C788.944,1607.449,721.027,1601.92,669.454,1575.926z"/> <path d="M232.548,365.115c-5.238,14.272-9.776,28.705-13.594,43.243h475.311c-2.286-15.623-4.251-30.09-5.85-43.243H232.548z"/> <path d="M804.885,40.804c11.904,0.406,23.618,8.094,34.412,21.609h235.163c-54.885-18.288-115.03-31.191-180.162-37.994 c-137.42-14.354-254.888,1.516-351.909,37.994h220.703C776.846,48.387,791.142,40.433,804.885,40.804z"/> <path d="M451.775,105.656c-22.369,13.221-43.248,27.697-62.631,43.243h323.202c5.991-15.618,12.689-30.18,19.874-43.243H451.775z "/> <path d="M1246.707,148.899c-21.883-15.691-45.291-30.14-70.191-43.243H863.192c5.188,12.902,9.854,27.411,13.853,43.243H1246.707 z"/> <path d="M1439.362,408.358c-4.888-14.724-10.408-29.14-16.524-43.243H887.725c-1.83,15.071-4.185,29.469-7.02,43.243H1439.362z"/> <path d="M1341.562,235.385c-12.966-15.078-26.885-29.508-41.744-43.243H885.733c2.125,13.819,3.772,28.279,4.878,43.243H1341.562 z"/> <path d="M341.604,192.142c-13.438,13.863-25.904,28.31-37.396,43.243h384.823c2.416-14.694,5.572-29.187,9.33-43.243H341.604z"/> <path d="M216.884,538.088c1.005,2.534,2.061,5.073,3.22,7.624c-7.221,11.276-15.62,23.222-24.809,35.619h461.151 c13.51-14.526,27.125-28.919,40.577-43.243H216.884z"/> <path d="M161.822,624.575c-11.387,14.267-23.196,28.775-34.935,43.243h454.147c11.564-14.633,23.7-29.029,36.18-43.243H161.822z"/> <path d="M92.189,711.061c-11.714,14.886-22.792,29.409-32.661,43.243h463.404c7.949-14.701,16.793-29.1,26.34-43.243H92.189z"/> <path d="M31.839,797.548c-7.093,13.081-11.938,24.881-13.745,34.95c-0.528,2.904-0.751,5.664-0.713,8.293h471.469 c3.591-14.733,8.257-29.133,13.829-43.243H31.839z"/> <path d="M1460.365,494.845c-2.338-14.644-5.222-29.064-8.648-43.243H869.695c-4.665,15.218-9.955,29.603-15.786,43.243H1460.365z "/> <path d="M209.745,451.602c-0.763,4.645-1.464,9.295-2.084,13.949c-1.286,9.748-1.614,19.496-0.899,29.294h501.32 c-2.547-14.995-4.941-29.436-7.157-43.243H209.745z"/> <path d="M129.029,970.521c-3.114,17.333-19.581,28.644-25.181,43.243H493.56c-3.853-14.362-6.839-28.843-8.991-43.243H129.029z"/> <path d="M1256.846,1273.223c-1.417-15.298-2.528-29.797-3.278-43.243H868.343c2.791,14.941,5.441,29.381,7.93,43.243H1256.846z"/> <path d="M860.152,1186.737h5.811c20.324-11.467,36.336-26.311,48.389-43.244h-62.578 C854.65,1158.207,857.448,1172.639,860.152,1186.737z"/> <path d="M480.385,910.445c0-8.926,0.431-17.723,1.228-26.411H52.64c9.296,5.102,18.67,9.395,25.66,13.687 c20.899,6.971,43.785,1.99,57.715,18.92c2.473,3.094,3.5,6.711,3.604,10.636h340.959 C480.382,921.616,480.318,916,480.385,910.445z"/> <path d="M1004.66,1013.764h320.084c10.036-14.683,20.251-29.05,30.101-43.243h-352.81 C1004.127,984.753,1005.021,999.252,1004.66,1013.764z"/> <path d="M663.382,1057.007H547.104c4.892,15.87,11.139,30.247,18.451,43.243H701.69 C685.467,1086.862,672.816,1072.287,663.382,1057.007z"/> <path d="M598.075,1143.493c18.445,18.73,39.423,32.856,60.764,43.244H837.76c-2.536-14.103-5.161-28.532-7.865-43.244H598.075z"/> <path d="M805.089,1229.98c-13.72,1.817-28.207,2.811-43.485,2.892c-15.683,0.141-30.651-0.861-44.92-2.892H145.313 c-4.997,14.561-10.327,29.101-14.367,43.243h721.865c-2.319-13.894-4.788-28.333-7.389-43.243H805.089z"/> <path d="M825.986,1013.764h114.093c-2.855-15.074-7.537-29.678-13.882-43.243H817.273 C820.195,985.005,823.103,999.432,825.986,1013.764z"/> <path d="M843.264,1100.25h92.384c4.372-14.023,6.832-28.6,7.512-43.243H834.658 C837.572,1071.586,840.445,1086.017,843.264,1100.25z"/> <path d="M559.694,1143.493H128.592c11.424,13.088,22.322,27.371,25.165,43.244h452.946 C589.099,1174.233,573.453,1159.633,559.694,1143.493z"/> <path d="M918.452,1186.737h334.068c0.287-16.102,1.556-29.091,3.999-38.077c0.457-1.729,0.932-3.451,1.421-5.167H961.885 C950.024,1159.568,935.59,1174.189,918.452,1186.737z"/> <path d="M566.513,840.791h145.459c16.14-13.003,34.463-23.623,54.351-30.999c-0.786-4.089-1.568-8.164-2.352-12.244H594.553 C584.093,811.152,574.642,825.455,566.513,840.791z"/> <path d="M538.447,927.277h111.93c5.218-15.136,12.571-29.7,21.74-43.243H548.314 C544.004,897.586,540.666,911.949,538.447,927.277z"/> <path d="M828.47,798.22c43.54,0.343,80.161,16.57,108.546,42.571h485.525c5.083-14.491,9.731-28.909,13.943-43.243H782.438 c0.447,2.239,0.894,4.476,1.342,6.721C798.09,800.507,813.049,798.382,828.47,798.22z"/> <path d="M693.881,1013.764h111.657c-2.729-14.311-5.49-28.739-8.272-43.243h-96.476 C696.072,983.949,693.584,998.514,693.881,1013.764z"/> <path d="M632.712,754.304h122.974c-2.776-14.527-5.523-28.953-8.233-43.243h-69.176 C662.53,725.405,647.173,739.637,632.712,754.304z"/> <path d="M641.636,970.521H535.289c-0.005,0.76-0.024,1.507-0.024,2.271c0,14.462,0.894,28.1,2.562,40.972h107.488 C641.9,999.443,640.755,984.917,641.636,970.521z"/> <path d="M752.014,641.794c1.617,8.551,3.272,17.236,4.957,26.024h706.245c1.687-14.549,2.913-28.969,3.664-43.243H768.337 C762.961,630.448,757.514,636.183,752.014,641.794z"/> <path d="M565.555,1100.25h-36.383c8.893,15.265,19.051,29.788,30.522,43.243h38.381 C585.926,1131.156,574.88,1116.824,565.555,1100.25z"/> <path d="M537.828,1013.764H493.56c3.918,14.608,8.732,29.092,14.465,43.243h39.079 C542.993,1043.671,539.839,1029.284,537.828,1013.764z"/> <path d="M632.712,754.304h-109.78c-7.636,14.122-14.439,28.524-20.253,43.244h91.875 C606.177,782.431,619.04,768.17,632.712,754.304z"/> <path d="M725.419,667.818H581.033c-11.201,14.174-21.859,28.571-31.762,43.243h129.006 C693.783,696.936,709.661,682.695,725.419,667.818z"/> <path d="M566.513,840.791h-77.664c-3.437,14.1-5.884,28.506-7.236,43.243h66.701C553.205,868.658,559.342,854.32,566.513,840.791 z"/> <path d="M538.447,927.277h-57.869c0.49,14.192,1.814,28.677,3.991,43.244h50.721 C535.388,955.268,536.476,940.891,538.447,927.277z"/> <path d="M839.297,62.413h-76.205c-10.804,11.017-21.27,25.786-30.871,43.243h130.972 C856.078,87.963,847.987,73.294,839.297,62.413z"/> <path d="M763.971,797.548h18.467c-2.906-14.552-5.775-28.981-8.597-43.244h-18.156 C758.423,768.633,761.189,783.06,763.971,797.548z"/> <path d="M926.197,970.521h75.838c-2.177-14.804-5.65-29.314-10.358-43.244h-95.135 C908.629,939.543,918.603,954.287,926.197,970.521z"/> <path d="M759.197,1446.197H597.901c-1.582,9.5-2.511,20.269-2.629,32.51c0,3.618,0.266,7.197,0.762,10.733h144.534 C750.944,1477.748,757.731,1462.745,759.197,1446.197z"/> <path d="M943.161,1057.007h56.616c2.918-14.253,4.523-28.753,4.883-43.243h-64.581 C942.761,1027.925,943.835,1042.498,943.161,1057.007z"/> <path d="M685.418,1364.505c-23.048,0-43.513,10.688-59.641,24.96c-4.197,3.714-8.205,8.144-11.858,13.49h136.204 C737.448,1380.026,713.219,1364.505,685.418,1364.505z"/> <path d="M672.117,884.034h299.76c-9.651-16.196-21.315-30.835-34.861-43.243H711.972 C696.493,853.262,683.023,867.925,672.117,884.034z"/> <path d="M860.7,1189.591c-0.181-0.947-0.366-1.904-0.548-2.854H837.76c0.716,3.98,1.427,7.943,2.127,11.869 c-22.145,8.009-48.109,12.687-78.284,12.897c-27.791,0-65.814-6.781-102.764-24.766h-52.137 c30.61,21.744,67.139,37.144,109.981,43.243h88.405c13.749-1.82,26.728-4.467,38.961-7.849c0.462,2.632,0.919,5.245,1.373,7.849 h22.921c-0.916-4.903-1.846-9.859-2.791-14.866c19.89-7.476,37.485-17.09,52.9-28.377h-52.488 C864.238,1187.711,862.489,1188.667,860.7,1189.591z"/> <path d="M747.453,711.061h17.888c-2.864-14.672-5.658-29.099-8.37-43.243h-17.675C741.97,682.07,744.689,696.486,747.453,711.061 z"/> <path d="M914.352,1143.493h47.533c9.97-13.513,18.124-28.05,24.54-43.243h-50.778 C930.883,1115.535,923.843,1130.159,914.352,1143.493z"/> <path d="M859.807,1316.466h24.011c-2.301-13.652-4.826-28.101-7.545-43.243h-23.462 C855.328,1288.306,857.668,1302.75,859.807,1316.466z"/> <path d="M871.547,1402.954h24.946c-1.364-12.448-3.306-26.958-5.748-43.245h-24.542 C868.408,1375.656,870.209,1390.142,871.547,1402.954z"/> <path d="M868.13,1489.44h25.389c2.895-13.045,4.651-27.441,5.115-43.243h-24.347 C874.259,1462.151,872.056,1476.551,868.13,1489.44z"/> <path d="M679.451,1532.683h-64.369c13.277,17.291,32.332,32.134,54.372,43.243h168c15.82-10.28,29.568-24.508,40.019-43.243 h-32.821C794.148,1591.813,695.313,1587.773,679.451,1532.683z"/> <path d="M774.312,451.602h95.383c4.203-13.71,7.894-28.102,11.01-43.244h-73.676 C797.014,422.879,786.018,437.272,774.312,451.602z"/> <path d="M853.909,494.845H736.995c-3.062,3.397-6.146,6.793-9.254,10.191c-0.553-3.455-1.089-6.848-1.61-10.191h-18.05 c1.472,8.666,2.995,17.515,4.567,26.537c-5.173,5.561-10.387,11.129-15.625,16.706h135.372 C840.157,524.514,847.37,510.144,853.909,494.845z"/> <path d="M715.602,408.358h-21.337c1.987,13.577,4.216,28.024,6.659,43.244h18.984 C717.709,434.511,716.231,419.947,715.602,408.358z"/> <path d="M722.515,321.872h-38.324c0.766,12.104,2.202,26.622,4.223,43.243h28.589 C718.246,349.848,720.116,335.429,722.515,321.872z"/> <path d="M864.482,245.999c0.245,11.036-0.417,21.905-1.879,32.63h29.627c-0.026-14.784-0.584-29.234-1.62-43.244h-26.405 C864.385,238.792,864.482,242.325,864.482,245.999z"/> <path d="M749.44,235.385h-60.409c-2.353,14.307-4.003,28.798-4.853,43.244h48.529 C737.569,262.482,743.238,248.057,749.44,235.385z"/> <path d="M700.789,970.521c5.756-16.384,14.83-31.073,26.21-43.244h-76.622c-4.84,14.041-7.844,28.573-8.741,43.244H700.789z"/> <path d="M813.75,1057.007h20.908c-2.856-14.286-5.75-28.714-8.672-43.243h-20.448 C808.311,1028.311,811.051,1042.735,813.75,1057.007z"/> <path d="M804.123,581.331H656.445c-13.266,14.265-26.427,28.66-39.232,43.244h151.123 C780.747,611.019,792.765,596.701,804.123,581.331z"/> <path d="M693.881,1013.764h-48.565c3.519,14.756,9.454,29.292,18.067,43.243h38.738 C696.756,1042.251,694.152,1027.721,693.881,1013.764z"/> <path d="M758.168,1134.899c-12.853-11.368-23.535-22.974-32.266-34.649H701.69 C717.165,1113.02,735.883,1124.712,758.168,1134.899z"/> <path d="M829.895,1143.493h21.88c-2.77-14.174-5.611-28.602-8.511-43.243h-21.385 C824.615,1114.896,827.29,1129.322,829.895,1143.493z"/> <path d="M854.534,192.142h31.198c-2.346-15.256-5.274-29.728-8.687-43.243H712.346c-5.258,13.706-9.969,28.22-13.985,43.243 h79.957C807.42,161.301,838.918,160.397,854.534,192.142z"/> <path d="M817.273,970.521c-2.901-14.375-5.815-28.803-8.732-43.244h-19.587c2.785,14.469,5.559,28.895,8.311,43.244H817.273z"/> <path d="M833.452,365.115h54.273c1.68-13.835,2.922-28.228,3.674-43.243h-39.124 C847.305,336.501,840.952,350.896,833.452,365.115z"/> </g> </g> </g> </svg>